<svg width="276" height="233" xmlns="http://www.w3.org/2000/svg" xmlns:xlink="http://www.w3.org/1999/xlink">
 <defs>
  <path d="m138,33c100,-100 250,50 0,200c-250,-150 -100,-300 0,-200m0,24a60,60 0 0 0 0,120a60,60 0 0 0 0,-120" id="k"/>
 </defs>
 <g>
  <title>background</title>
  <rect fill="none" id="canvas_background" height="402" width="582" y="-1" x="-1"/>
 </g>
 <g>
  <title>Layer 1</title>
  <use id="svg_1" xlink:href="#k" fill="Grey"/>
  <path d="m96.5,101.953125c-3,0 -4.076118,-0.382683 -5,0c-1.306564,0.541199 -1,2 -1,3c0,1 1.946724,1.498741 9,2c2.992455,0.212669 12.849762,1.298264 18,-3c3.83876,-3.203735 4,-7 4,-11c0,-4 0.609009,-5.769508 -3,-8c-5.37999,-3.325012 -8.018623,-3.747208 -23,-3c-10.037399,0.500618 -18.237488,3.64875 -26,12c-2.45472,2.6409 -3.292892,5.292892 -4,6c-0.707108,0.707108 3.613838,-0.296997 6,-3c1.479836,-1.676331 3.872971,-4.452309 8,-12c2.583572,-4.724953 2,-10 2,-18l-3,-7l-3,-3l-3,-3" id="svg_2" stroke-width="1.5" fill="none"/>
  <ellipse ry="67.5" rx="83" id="svg_4" cy="118.453125" cx="133.5" stroke-width="1.5" fill="Grey"/>
 </g>
</svg>